# xmcd
#
# Track frame offsets: 
#        150
#        13895
#        27363
#        38228
#        51246
#        63990
#        77130
#        88440
#        106074
#        120731
#
# Disc length: 1792 seconds
#
# Revision: 1
# Processed by: cddbd v1.5.2PL0 Copyright (c) Steve Scherf et al.
# Submitted via: ExactAudioCopy v1.1
#
DISCID=8306fe0a
DTITLE=King Floyd - King Floyd
DYEAR=1971
DGENRE=R&B
TTITLE0=Groove Me
TTITLE1=Let Us Be
TTITLE2=Woman Don't Go Astray
TTITLE3=Baby Let Me Kiss You
TTITLE4=Messing Up My Mind
TTITLE5=It's Wonderful
TTITLE6=So Glad I Found You
TTITLE7=Don't Leave Me Lonely
TTITLE8=Day In The Life Of A Fool
TTITLE9=What Our Love Needs
EXTD=
EXTT0=
EXTT1=
EXTT2=
EXTT3=
EXTT4=
EXTT5=
EXTT6=
EXTT7=
EXTT8=
EXTT9=
PLAYORDER=
